<svg width="40" height="40" viewBox="0 0 40 40" fill="none" xmlns="http://www.w3.org/2000/svg">
<path d="M20 37.0833L20 25.4166M20 16.6666V23.75M20 25.4166L24.1667 21.25M20 25.4166L20 23.75M20 23.75L16.25 20.8333" stroke="black" stroke-width="2" stroke-linecap="round" stroke-linejoin="round"/>
<path d="M30.6087 10.8484V10.8755L30.6102 10.9025C30.8961 16.1866 30.0983 21.328 28.1616 25.0366C26.2495 28.6981 23.2851 30.8954 19.0948 30.6476C18.0402 30.5852 16.8982 30.0676 15.7409 29.1351C14.5899 28.2077 13.4859 26.9185 12.5229 25.4373C10.5811 22.4502 9.33325 18.8732 9.33325 16.269C9.33325 13.6698 10.5756 10.2132 12.5069 7.3891C13.4647 5.98847 14.5614 4.78976 15.7027 3.95002C16.8475 3.10768 17.9803 2.66663 19.0358 2.66663C21.5187 2.66663 24.4747 3.48023 26.7871 4.9571C29.1029 6.43617 30.6087 8.4604 30.6087 10.8484Z" stroke="black" stroke-width="2"/>
</svg>
