<svg width="40" height="40" viewBox="0 0 40 40" fill="none" xmlns="http://www.w3.org/2000/svg">
<path d="M6.66675 10C6.66675 10 15.8366 10 18.3334 10" stroke="black" stroke-width="2" stroke-linecap="round" stroke-linejoin="round"/>
<path d="M30 10C30 10 32.6199 10 33.3333 10" stroke="black" stroke-width="2" stroke-linecap="round" stroke-linejoin="round"/>
<path d="M6.66675 30C6.66675 30 15.8366 30 18.3334 30" stroke="black" stroke-width="2" stroke-linecap="round" stroke-linejoin="round"/>
<path d="M30 30C30 30 32.6199 30 33.3333 30" stroke="black" stroke-width="2" stroke-linecap="round" stroke-linejoin="round"/>
<path d="M11.6667 20C11.6667 20 7.73683 20 6.66675 20L7.91675 20" stroke="black" stroke-width="2" stroke-linecap="round" stroke-linejoin="round"/>
<path d="M33.3333 20C33.3333 20 24.1634 20 21.6666 20L24.5833 20" stroke="black" stroke-width="2" stroke-linecap="round" stroke-linejoin="round"/>
<path d="M17.3127 18.0606V18.0896L17.3143 18.1185C17.4117 19.7973 17.1339 21.3686 16.5254 22.456C15.9469 23.49 15.1014 24.0621 13.8775 23.9946C13.6617 23.9827 13.371 23.8785 13.0226 23.6165C12.6788 23.358 12.3309 22.9838 12.0175 22.5337C11.371 21.6055 11 20.548 11 19.8675C11 19.1924 11.3662 18.1787 12.0024 17.3104C12.6632 16.4085 13.3589 16 13.8223 16C14.6022 16 15.5469 16.2433 16.2709 16.6749C17.0098 17.1153 17.3127 17.6114 17.3127 18.0606Z" stroke="black" stroke-width="2"/>
<path d="M28.484 13.9506L28.4404 13.9623L28.398 13.9779C27.1264 14.445 25.8232 14.4385 24.7639 13.9184C23.729 13.4103 22.7772 12.3387 22.3225 10.3657C22.1032 9.41366 22.3523 8.22927 22.8966 7.18785C23.1629 6.67832 23.4805 6.24202 23.7986 5.92139C24.1281 5.58928 24.4007 5.43814 24.566 5.39384C24.7288 5.35022 25.0294 5.34575 25.4611 5.46894C25.8789 5.58817 26.3502 5.80794 26.8121 6.11774C27.7544 6.74969 28.515 7.65579 28.7685 8.6019C29.0758 9.74884 29.2125 11.1622 29.0947 12.3041C29.0355 12.8776 28.9182 13.3204 28.7718 13.6135C28.6269 13.9037 28.511 13.9434 28.484 13.9506Z" stroke="black" stroke-width="2"/>
<path d="M22.6873 31.9394L22.6873 31.9104L22.6857 31.8815C22.5883 30.2027 22.8661 28.6314 23.4746 27.544C24.0531 26.51 24.8986 25.9379 26.1225 26.0054C26.3383 26.0173 26.629 26.1215 26.9774 26.3835C27.3212 26.642 27.6691 27.0162 27.9825 27.4663C28.629 28.3945 29 29.452 29 30.1325C29 30.8076 28.6338 31.8213 27.9976 32.6896C27.3368 33.5915 26.6411 34 26.1777 34C25.3978 34 24.4531 33.7567 23.7291 33.3251C22.9902 32.8847 22.6873 32.3886 22.6873 31.9394Z" stroke="black" stroke-width="2"/>
</svg>
