<svg xmlns="http://www.w3.org/2000/svg" width="24" height="24" viewBox="0 0 24 24" fill="none">
    <path
        d="M12 22.25L12 15.25M12 10V14.25M12 15.25L14.5 12.75M12 15.25L12 14.25M12 14.25L9.75 12.5"
        stroke="black" stroke-width="2" stroke-linecap="round" stroke-linejoin="round" />
    <path
        d="M17.9653 6.50909V6.53612L17.9667 6.56312C18.1359 9.68991 17.6603 12.6963 16.5425 14.8368C15.4492 16.9303 13.8005 18.1265 11.4806 17.9893C10.9592 17.9584 10.3515 17.6981 9.69557 17.1696C9.04588 16.6462 8.4103 15.9076 7.84918 15.0444C6.71093 13.2934 6 11.2225 6 9.76145C6 8.30523 6.70627 6.30887 7.83436 4.65928C8.3906 3.84589 9.01891 3.16298 9.65873 2.69222C10.3021 2.21888 10.9002 2 11.4215 2C12.8361 2 14.5348 2.46694 15.857 3.3114C17.1826 4.15805 17.9653 5.26409 17.9653 6.50909Z"
        stroke="black" stroke-width="2" />
</svg>