<svg xmlns="http://www.w3.org/2000/svg" width="24" height="24" viewBox="0 0 24 24" fill="none">
    <path d="M8 22.25L8 15.25M8 10V14.25M8 15.25L10.5 12.75M8 15.25L8 14.25M8 14.25L5.75 12.5"
        stroke="black" stroke-width="2" stroke-linecap="round" stroke-linejoin="round" />
    <path
        d="M13.9653 6.50909V6.53612L13.9667 6.56312C14.1359 9.68991 13.6603 12.6963 12.5425 14.8368C11.4492 16.9303 9.8005 18.1265 7.48058 17.9893C6.95924 17.9584 6.35152 17.6981 5.69557 17.1696C5.04588 16.6462 4.4103 15.9076 3.84918 15.0444C2.71093 13.2934 2 11.2225 2 9.76145C2 8.30523 2.70627 6.30887 3.83436 4.65928C4.3906 3.84589 5.01891 3.16298 5.65873 2.69222C6.30205 2.21888 6.90018 2 7.42153 2C8.83608 2 10.5348 2.46694 11.857 3.3114C13.1826 4.15805 13.9653 5.26409 13.9653 6.50909Z"
        stroke="black" stroke-width="2" />
    <path
        d="M17.5484 22.58C17.5094 22.4874 17.4186 22.4271 17.318 22.4271H15.2672C15.1667 22.4271 15.0759 22.4874 15.0368 22.58L14.9244 22.847C14.8853 22.9397 14.7946 23 14.694 23H13.3799C13.2003 23 13.0792 22.8161 13.1503 22.6511L15.9511 16.1511C15.9906 16.0594 16.0808 16 16.1807 16H16.4046C16.5044 16 16.5947 16.0594 16.6342 16.1511L19.4349 22.6511C19.506 22.8161 19.385 23 19.2053 23H17.8913C17.7907 23 17.6999 22.9397 17.6609 22.847L17.5484 22.58ZM16.5309 20.0444C16.4518 19.8245 16.1411 19.8237 16.0608 20.0431L15.8374 20.6537C15.7778 20.8168 15.8985 20.9896 16.0722 20.9896H16.5152C16.6883 20.9896 16.809 20.8179 16.7504 20.655L16.5309 20.0444Z"
        fill="black" />
    <path
        d="M22 22.75C22 22.8881 21.8881 23 21.75 23H20.5207C20.3827 23 20.2707 22.8881 20.2707 22.75V16.375C20.2707 16.2369 20.3827 16.125 20.5207 16.125H21.75C21.8881 16.125 22 16.2369 22 16.375V22.75Z"
        fill="black" />
</svg>