<svg width="350" height="375" viewBox="0 0 350 375" fill="none" xmlns="http://www.w3.org/2000/svg">
<rect x="1" y="375" width="328" height="31.0429" rx="15" transform="rotate(-90 1 375)" fill="#E20C15" fill-opacity="0.1"/>
<rect x="1.02148" y="375" width="86" height="31" rx="15" transform="rotate(-90 1.02148 375)" fill="#7C99B2"/>
<rect x="1.02148" y="289" width="55" height="31" rx="15" transform="rotate(-90 1.02148 289)" fill="#5E7386"/>
<rect x="1.02148" y="234" width="42" height="31" rx="15" transform="rotate(-90 1.02148 234)" fill="#458E72"/>
<rect x="1.02148" y="192" width="97" height="31" rx="15" transform="rotate(-90 1.02148 192)" fill="#51AF8B"/>
<g clip-path="url(#clip0_473_2547)">
<path d="M18.2652 12.3348C18.4782 14.0774 17.7593 16.0361 16.4892 17.5583C15.211 19.0903 13.5452 19.9846 12.045 19.8995C10.5207 19.813 8.71618 18.6676 7.54522 16.9085C6.39442 15.1797 5.99366 13.068 6.94458 11.1436C8.03116 8.94459 9.50508 7.19603 10.7178 5.99234C11.3222 5.39243 11.8564 4.93315 12.2362 4.62617C12.2416 4.62176 12.247 4.61739 12.2524 4.61304C12.369 4.7052 12.5 4.81038 12.643 4.92745C13.2418 5.4178 14.0429 6.11182 14.8564 6.92859C15.6726 7.74804 16.4837 8.67355 17.1154 9.62558C17.7537 10.5876 18.1645 11.511 18.2652 12.3348Z" stroke="black" stroke-width="2"/>
</g>
<path d="M39.587 16.926H44.5V19H37.292V7.78H39.587V16.926ZM53.942 14.308C53.942 14.716 53.891 15.1353 53.789 15.566H47.89C48.026 16.0987 48.298 16.5123 48.706 16.807C49.1254 17.0903 49.641 17.232 50.253 17.232C51.0804 17.232 51.8624 16.9487 52.599 16.382L53.551 17.946C52.5537 18.7847 51.4317 19.204 50.185 19.204C49.3124 19.204 48.5247 19.0113 47.822 18.626C47.1194 18.2407 46.5697 17.7137 46.173 17.045C45.7764 16.365 45.578 15.617 45.578 14.801C45.578 13.985 45.7707 13.2427 46.156 12.574C46.5414 11.894 47.0684 11.3613 47.737 10.976C48.417 10.5907 49.165 10.398 49.981 10.398C50.7517 10.398 51.4374 10.5737 52.038 10.925C52.6387 11.265 53.1034 11.7353 53.432 12.336C53.772 12.9253 53.942 13.5827 53.942 14.308ZM49.896 12.251C49.4087 12.251 48.9837 12.404 48.621 12.71C48.2584 13.016 48.0147 13.4297 47.89 13.951H51.715C51.7037 13.4297 51.5224 13.016 51.171 12.71C50.8197 12.404 50.3947 12.251 49.896 12.251ZM60.0508 17.147C60.1868 17.147 60.5494 17.1243 61.1388 17.079V19C60.5948 19.136 60.0678 19.204 59.5578 19.204C58.4924 19.204 57.6651 18.9433 57.0758 18.422C56.4864 17.8893 56.1918 17.096 56.1918 16.042V12.523H54.8658V10.585H56.1918V8.46H58.4868V10.585H60.8668V12.523H58.4868V15.838C58.4868 16.314 58.6114 16.654 58.8608 16.858C59.1101 17.0507 59.5068 17.147 60.0508 17.147ZM69.35 17.062V19H61.955V18.388L65.984 12.523H62.346V10.585H69.316V11.197L65.321 17.062H69.35ZM75.0752 17.147C75.2112 17.147 75.5738 17.1243 76.1632 17.079V19C75.6192 19.136 75.0922 19.204 74.5822 19.204C73.5168 19.204 72.6895 18.9433 72.1002 18.422C71.5108 17.8893 71.2162 17.096 71.2162 16.042V12.523H69.8902V10.585H71.2162V8.46H73.5112V10.585H75.8912V12.523H73.5112V15.838C73.5112 16.314 73.6358 16.654 73.8852 16.858C74.1345 17.0507 74.5312 17.147 75.0752 17.147ZM85.5514 14.308C85.5514 14.716 85.5004 15.1353 85.3984 15.566H79.4994C79.6354 16.0987 79.9074 16.5123 80.3154 16.807C80.7347 17.0903 81.2504 17.232 81.8624 17.232C82.6897 17.232 83.4717 16.9487 84.2084 16.382L85.1604 17.946C84.1631 18.7847 83.0411 19.204 81.7944 19.204C80.9217 19.204 80.1341 19.0113 79.4314 18.626C78.7287 18.2407 78.1791 17.7137 77.7824 17.045C77.3857 16.365 77.1874 15.617 77.1874 14.801C77.1874 13.985 77.3801 13.2427 77.7654 12.574C78.1507 11.894 78.6777 11.3613 79.3464 10.976C80.0264 10.5907 80.7744 10.398 81.5904 10.398C82.3611 10.398 83.0467 10.5737 83.6474 10.925C84.2481 11.265 84.7127 11.7353 85.0414 12.336C85.3814 12.9253 85.5514 13.5827 85.5514 14.308ZM81.5054 12.251C81.0181 12.251 80.5931 12.404 80.2304 12.71C79.8677 13.016 79.6241 13.4297 79.4994 13.951H83.3244C83.3131 13.4297 83.1317 13.016 82.7804 12.71C82.4291 12.404 82.0041 12.251 81.5054 12.251ZM96.8328 11.894C97.5921 12.098 98.2324 12.5003 98.7538 13.101C99.2751 13.7017 99.5358 14.444 99.5358 15.328C99.5358 16.076 99.3431 16.7447 98.9578 17.334C98.5838 17.9233 98.0738 18.3823 97.4278 18.711C96.7818 19.0397 96.0734 19.204 95.3028 19.204C94.3734 19.204 93.5574 18.9717 92.8548 18.507C92.1521 18.0423 91.6081 17.4247 91.2228 16.654L92.8208 15.532C93.1608 16.042 93.5178 16.4273 93.8918 16.688C94.2658 16.9487 94.7134 17.079 95.2348 17.079C95.8014 17.079 96.2661 16.926 96.6288 16.62C97.0028 16.3027 97.1898 15.8777 97.1898 15.345C97.1898 14.8237 96.9914 14.427 96.5948 14.155C96.2094 13.8717 95.6428 13.73 94.8948 13.73H93.4838V13.135L95.8298 9.854H92.0898V7.78H99.3148V8.392L96.8328 11.894ZM105.704 7.576C107.155 7.576 108.254 8.103 109.002 9.157C109.761 10.211 110.141 11.5937 110.141 13.305C110.141 14.4157 109.977 15.4187 109.648 16.314C109.319 17.198 108.821 17.9007 108.152 18.422C107.495 18.9433 106.679 19.204 105.704 19.204C104.729 19.204 103.908 18.9433 103.239 18.422C102.57 17.9007 102.072 17.198 101.743 16.314C101.414 15.4187 101.25 14.4157 101.25 13.305C101.25 11.5937 101.63 10.211 102.389 9.157C103.148 8.103 104.253 7.576 105.704 7.576ZM105.704 9.701C104.979 9.701 104.446 10.007 104.106 10.619C103.777 11.231 103.613 12.132 103.613 13.322C103.613 15.8267 104.31 17.079 105.704 17.079C107.087 17.079 107.778 15.8267 107.778 13.322C107.778 12.132 107.608 11.231 107.268 10.619C106.939 10.007 106.418 9.701 105.704 9.701ZM124.731 9.854H121.127V19H118.832V9.854H115.245V7.78H124.731V9.854ZM128.445 10.398C129.545 10.398 130.417 10.7097 131.063 11.333C131.721 11.945 132.049 12.8347 132.049 14.002V19H129.941V18.184C129.635 18.5013 129.261 18.7507 128.819 18.932C128.389 19.1133 127.907 19.204 127.374 19.204C126.479 19.204 125.771 18.9717 125.249 18.507C124.728 18.031 124.467 17.4247 124.467 16.688C124.467 15.9287 124.751 15.3337 125.317 14.903C125.895 14.461 126.672 14.24 127.646 14.24H129.754V13.866C129.754 13.4013 129.618 13.0387 129.346 12.778C129.086 12.5173 128.7 12.387 128.19 12.387C127.76 12.387 127.374 12.4833 127.034 12.676C126.694 12.8573 126.337 13.1463 125.963 13.543L124.773 12.132C125.748 10.976 126.972 10.398 128.445 10.398ZM127.986 17.521C128.485 17.521 128.904 17.368 129.244 17.062C129.584 16.7447 129.754 16.3423 129.754 15.855V15.753H127.952C127.578 15.753 127.289 15.8267 127.085 15.974C126.881 16.11 126.779 16.3197 126.779 16.603C126.779 16.8863 126.887 17.113 127.102 17.283C127.329 17.4417 127.624 17.521 127.986 17.521ZM142.707 10.585V18.065C142.707 19.4363 142.31 20.479 141.517 21.193C140.724 21.907 139.67 22.264 138.355 22.264C136.768 22.264 135.391 21.7427 134.224 20.7L135.431 19.102C135.896 19.4533 136.338 19.7197 136.757 19.901C137.188 20.0937 137.658 20.19 138.168 20.19C138.848 20.19 139.392 20.02 139.8 19.68C140.208 19.3513 140.412 18.8583 140.412 18.201V17.742C140.106 18.0707 139.732 18.32 139.29 18.49C138.859 18.66 138.378 18.745 137.845 18.745C137.074 18.745 136.383 18.5693 135.771 18.218C135.159 17.8667 134.677 17.3737 134.326 16.739C133.986 16.1043 133.816 15.379 133.816 14.563C133.816 13.7357 133.992 13.0103 134.343 12.387C134.694 11.7523 135.176 11.265 135.788 10.925C136.4 10.5737 137.086 10.398 137.845 10.398C138.446 10.398 138.978 10.5057 139.443 10.721C139.919 10.9363 140.304 11.2423 140.599 11.639V10.585H142.707ZM138.321 16.807C138.899 16.807 139.398 16.6087 139.817 16.212C140.236 15.8153 140.446 15.2543 140.446 14.529C140.446 13.8037 140.236 13.2597 139.817 12.897C139.409 12.5343 138.91 12.353 138.321 12.353C137.698 12.353 137.176 12.5513 136.757 12.948C136.349 13.3333 136.145 13.866 136.145 14.546C136.145 15.226 136.355 15.7757 136.774 16.195C137.193 16.603 137.709 16.807 138.321 16.807ZM152.871 14.308C152.871 14.716 152.82 15.1353 152.718 15.566H146.819C146.955 16.0987 147.227 16.5123 147.635 16.807C148.054 17.0903 148.57 17.232 149.182 17.232C150.009 17.232 150.791 16.9487 151.528 16.382L152.48 17.946C151.482 18.7847 150.36 19.204 149.114 19.204C148.241 19.204 147.453 19.0113 146.751 18.626C146.048 18.2407 145.498 17.7137 145.102 17.045C144.705 16.365 144.507 15.617 144.507 14.801C144.507 13.985 144.699 13.2427 145.085 12.574C145.47 11.894 145.997 11.3613 146.666 10.976C147.346 10.5907 148.094 10.398 148.91 10.398C149.68 10.398 150.366 10.5737 150.967 10.925C151.567 11.265 152.032 11.7353 152.361 12.336C152.701 12.9253 152.871 13.5827 152.871 14.308ZM148.825 12.251C148.337 12.251 147.912 12.404 147.55 12.71C147.187 13.016 146.943 13.4297 146.819 13.951H150.644C150.632 13.4297 150.451 13.016 150.1 12.71C149.748 12.404 149.323 12.251 148.825 12.251Z" fill="black"/>
<path d="M85.675 74.979C86.3663 74.979 87.001 75.1093 87.579 75.37C88.1683 75.6193 88.6387 76.0047 88.99 76.526C89.3413 77.0473 89.517 77.6877 89.517 78.447C89.517 79.195 89.33 79.8523 88.956 80.419C88.5933 80.9857 88.106 81.422 87.494 81.728C86.8933 82.034 86.2417 82.187 85.539 82.187C84.6437 82.187 83.8673 81.9717 83.21 81.541C82.564 81.1103 82.0483 80.555 81.663 79.875L82.581 79.195C82.9323 79.7277 83.3403 80.1583 83.805 80.487C84.281 80.8043 84.8533 80.963 85.522 80.963C86.2813 80.963 86.9047 80.7363 87.392 80.283C87.8907 79.8183 88.14 79.212 88.14 78.464C88.14 77.7273 87.8907 77.155 87.392 76.747C86.9047 76.339 86.202 76.135 85.284 76.135H82.751V70.78H88.548V71.97H84.077V75.115C84.5983 75.0243 85.131 74.979 85.675 74.979ZM95.6657 70.593C97.0257 70.593 98.0457 71.1143 98.7257 72.157C99.417 73.1883 99.7627 74.5653 99.7627 76.288C99.7627 78.0107 99.4227 79.4273 98.7427 80.538C98.0627 81.6373 97.037 82.187 95.6657 82.187C94.2944 82.187 93.263 81.6373 92.5717 80.538C91.8917 79.4273 91.5517 78.0107 91.5517 76.288C91.5517 74.5767 91.8974 73.1997 92.5887 72.157C93.28 71.1143 94.3057 70.593 95.6657 70.593ZM95.6657 71.817C94.7137 71.817 94.0167 72.2137 93.5747 73.007C93.144 73.8003 92.9287 74.8997 92.9287 76.305C92.9287 77.733 93.1497 78.8663 93.5917 79.705C94.0337 80.5437 94.725 80.963 95.6657 80.963C96.6064 80.963 97.292 80.5437 97.7227 79.705C98.1647 78.8663 98.3857 77.733 98.3857 76.305C98.3857 74.8997 98.1704 73.8003 97.7397 73.007C97.309 72.2137 96.6177 71.817 95.6657 71.817ZM108.526 80.81H113.847V82H107.2V70.78H108.526V80.81ZM117.007 82H115.698V73.721H117.007V82ZM116.361 69.607C116.622 69.607 116.848 69.7033 117.041 69.896C117.234 70.0773 117.33 70.2983 117.33 70.559C117.33 70.831 117.234 71.0577 117.041 71.239C116.86 71.4203 116.633 71.511 116.361 71.511C116.089 71.511 115.857 71.4203 115.664 71.239C115.471 71.0577 115.375 70.831 115.375 70.559C115.375 70.2983 115.471 70.0773 115.664 69.896C115.857 69.7033 116.089 69.607 116.361 69.607ZM123.299 80.997C123.616 80.997 123.984 80.963 124.404 80.895V82C123.882 82.1247 123.423 82.187 123.027 82.187C122.165 82.187 121.485 81.966 120.987 81.524C120.488 81.082 120.239 80.4077 120.239 79.501V74.894H118.845V73.721H120.239V71.46H121.548V73.721H124.132V74.894H121.548V79.416C121.548 80.0053 121.695 80.419 121.99 80.657C122.296 80.8837 122.732 80.997 123.299 80.997ZM133.602 77.274C133.602 77.6253 133.568 77.954 133.5 78.26H126.955C127.034 79.076 127.357 79.7333 127.924 80.232C128.491 80.7307 129.182 80.98 129.998 80.98C130.939 80.98 131.783 80.606 132.531 79.858L133.296 80.742C132.865 81.1953 132.367 81.5523 131.8 81.813C131.245 82.0623 130.638 82.187 129.981 82.187C129.165 82.187 128.423 82 127.754 81.626C127.085 81.2407 126.558 80.7193 126.173 80.062C125.788 79.4047 125.595 78.6737 125.595 77.869C125.595 77.0757 125.782 76.3503 126.156 75.693C126.53 75.0243 127.04 74.4973 127.686 74.112C128.332 73.7267 129.046 73.534 129.828 73.534C130.531 73.534 131.171 73.6927 131.749 74.01C132.327 74.3273 132.78 74.7693 133.109 75.336C133.438 75.9027 133.602 76.5487 133.602 77.274ZM129.794 74.724C129.103 74.724 128.502 74.945 127.992 75.387C127.482 75.8177 127.153 76.39 127.006 77.104H132.259C132.248 76.3673 132.004 75.7893 131.528 75.37C131.063 74.9393 130.485 74.724 129.794 74.724ZM139.693 73.653C139.874 73.653 140.078 73.6757 140.305 73.721V74.877H139.812C139.347 74.877 138.917 74.9733 138.52 75.166C138.123 75.3587 137.806 75.6363 137.568 75.999C137.33 76.3617 137.211 76.798 137.211 77.308V82H135.902V73.721H137.126V74.894C137.421 74.4973 137.795 74.1913 138.248 73.976C138.713 73.7607 139.194 73.653 139.693 73.653ZM150.073 70.253C149.518 70.253 149.087 70.372 148.781 70.61C148.486 70.8367 148.339 71.2447 148.339 71.834V73.721H150.413V74.894H148.339V82H147.03V74.894H145.84V73.721H147.03V71.749C147.03 70.8423 147.274 70.168 147.761 69.726C148.26 69.284 148.928 69.063 149.767 69.063C150.13 69.063 150.475 69.1083 150.804 69.199V70.304C150.532 70.27 150.288 70.253 150.073 70.253ZM159.384 77.274C159.384 77.6253 159.35 77.954 159.282 78.26H152.737C152.817 79.076 153.14 79.7333 153.706 80.232C154.273 80.7307 154.964 80.98 155.78 80.98C156.721 80.98 157.565 80.606 158.313 79.858L159.078 80.742C158.648 81.1953 158.149 81.5523 157.582 81.813C157.027 82.0623 156.421 82.187 155.763 82.187C154.947 82.187 154.205 82 153.536 81.626C152.868 81.2407 152.341 80.7193 151.955 80.062C151.57 79.4047 151.377 78.6737 151.377 77.869C151.377 77.0757 151.564 76.3503 151.938 75.693C152.312 75.0243 152.822 74.4973 153.468 74.112C154.114 73.7267 154.828 73.534 155.61 73.534C156.313 73.534 156.953 73.6927 157.531 74.01C158.109 74.3273 158.563 74.7693 158.891 75.336C159.22 75.9027 159.384 76.5487 159.384 77.274ZM155.576 74.724C154.885 74.724 154.284 74.945 153.774 75.387C153.264 75.8177 152.936 76.39 152.788 77.104H158.041C158.03 76.3673 157.786 75.7893 157.31 75.37C156.846 74.9393 156.268 74.724 155.576 74.724ZM165.475 73.534C166.427 73.534 167.175 73.8343 167.719 74.435C168.263 75.0357 168.535 75.8233 168.535 76.798V82H167.226V76.968C167.226 76.2993 167.039 75.761 166.665 75.353C166.303 74.945 165.804 74.741 165.169 74.741C164.535 74.741 164.013 74.9507 163.605 75.37C163.197 75.7893 162.993 76.322 162.993 76.968V82H161.684V69.25H162.993V74.656C163.277 74.3047 163.628 74.0327 164.047 73.84C164.478 73.636 164.954 73.534 165.475 73.534ZM172.622 82H171.313V69.25H172.622V82ZM182.909 77.274C182.909 77.6253 182.875 77.954 182.807 78.26H176.262C176.341 79.076 176.664 79.7333 177.231 80.232C177.797 80.7307 178.489 80.98 179.305 80.98C180.245 80.98 181.09 80.606 181.838 79.858L182.603 80.742C182.172 81.1953 181.673 81.5523 181.107 81.813C180.551 82.0623 179.945 82.187 179.288 82.187C178.472 82.187 177.729 82 177.061 81.626C176.392 81.2407 175.865 80.7193 175.48 80.062C175.094 79.4047 174.902 78.6737 174.902 77.869C174.902 77.0757 175.089 76.3503 175.463 75.693C175.837 75.0243 176.347 74.4973 176.993 74.112C177.639 73.7267 178.353 73.534 179.135 73.534C179.837 73.534 180.478 73.6927 181.056 74.01C181.634 74.3273 182.087 74.7693 182.416 75.336C182.744 75.9027 182.909 76.5487 182.909 77.274ZM179.101 74.724C178.409 74.724 177.809 74.945 177.299 75.387C176.789 75.8177 176.46 76.39 176.313 77.104H181.566C181.554 76.3673 181.311 75.7893 180.835 75.37C180.37 74.9393 179.792 74.724 179.101 74.724ZM188.983 73.534C189.946 73.534 190.7 73.8343 191.244 74.435C191.788 75.0357 192.06 75.8233 192.06 76.798V82H190.751V76.951C190.751 76.2937 190.564 75.761 190.19 75.353C189.827 74.945 189.328 74.741 188.694 74.741C188.059 74.741 187.538 74.9507 187.13 75.37C186.722 75.778 186.518 76.305 186.518 76.951V82H185.209V73.721H186.433V74.605C186.739 74.265 187.107 74.0043 187.538 73.823C187.98 73.6303 188.461 73.534 188.983 73.534Z" fill="black"/>
<path d="M85.607 119.78V131H84.281V121.344L81.833 122.109L81.51 120.97L85.114 119.78H85.607ZM96.0434 129.81V131H88.2404V130.66L92.2354 126.41C92.9267 125.685 93.4254 125.084 93.7314 124.608C94.0487 124.121 94.2074 123.605 94.2074 123.061C94.2074 122.438 94.0091 121.911 93.6124 121.48C93.2271 121.038 92.7057 120.817 92.0484 120.817C91.3684 120.817 90.8244 121.044 90.4164 121.497C90.0084 121.95 89.8044 122.494 89.8044 123.129C89.8044 123.446 89.8384 123.758 89.9064 124.064H88.5464C88.4671 123.758 88.4274 123.429 88.4274 123.078C88.4274 122.489 88.5747 121.928 88.8694 121.395C89.1641 120.851 89.5834 120.415 90.1274 120.086C90.6827 119.757 91.3231 119.593 92.0484 119.593C92.7284 119.593 93.3347 119.746 93.8674 120.052C94.4114 120.347 94.8307 120.755 95.1254 121.276C95.4314 121.786 95.5844 122.358 95.5844 122.993C95.5844 123.503 95.4824 123.99 95.2784 124.455C95.0857 124.908 94.8307 125.339 94.5134 125.747C94.1961 126.144 93.7711 126.625 93.2384 127.192L90.7564 129.81H96.0434ZM102.19 119.593C103.55 119.593 104.57 120.114 105.25 121.157C105.941 122.188 106.287 123.565 106.287 125.288C106.287 127.011 105.947 128.427 105.267 129.538C104.587 130.637 103.561 131.187 102.19 131.187C100.819 131.187 99.7874 130.637 99.0961 129.538C98.4161 128.427 98.0761 127.011 98.0761 125.288C98.0761 123.577 98.4218 122.2 99.1131 121.157C99.8044 120.114 100.83 119.593 102.19 119.593ZM102.19 120.817C101.238 120.817 100.541 121.214 100.099 122.007C99.6684 122.8 99.4531 123.9 99.4531 125.305C99.4531 126.733 99.6741 127.866 100.116 128.705C100.558 129.544 101.249 129.963 102.19 129.963C103.131 129.963 103.816 129.544 104.247 128.705C104.689 127.866 104.91 126.733 104.91 125.305C104.91 123.9 104.695 122.8 104.264 122.007C103.833 121.214 103.142 120.817 102.19 120.817ZM115.051 129.81H120.372V131H113.725V119.78H115.051V129.81ZM123.531 131H122.222V122.721H123.531V131ZM122.885 118.607C123.146 118.607 123.373 118.703 123.565 118.896C123.758 119.077 123.854 119.298 123.854 119.559C123.854 119.831 123.758 120.058 123.565 120.239C123.384 120.42 123.157 120.511 122.885 120.511C122.613 120.511 122.381 120.42 122.188 120.239C121.996 120.058 121.899 119.831 121.899 119.559C121.899 119.298 121.996 119.077 122.188 118.896C122.381 118.703 122.613 118.607 122.885 118.607ZM129.823 129.997C130.14 129.997 130.509 129.963 130.928 129.895V131C130.407 131.125 129.948 131.187 129.551 131.187C128.69 131.187 128.01 130.966 127.511 130.524C127.012 130.082 126.763 129.408 126.763 128.501V123.894H125.369V122.721H126.763V120.46H128.072V122.721H130.656V123.894H128.072V128.416C128.072 129.005 128.219 129.419 128.514 129.657C128.82 129.884 129.256 129.997 129.823 129.997ZM140.127 126.274C140.127 126.625 140.093 126.954 140.025 127.26H133.48C133.559 128.076 133.882 128.733 134.449 129.232C135.015 129.731 135.707 129.98 136.523 129.98C137.463 129.98 138.308 129.606 139.056 128.858L139.821 129.742C139.39 130.195 138.891 130.552 138.325 130.813C137.769 131.062 137.163 131.187 136.506 131.187C135.69 131.187 134.947 131 134.279 130.626C133.61 130.241 133.083 129.719 132.698 129.062C132.312 128.405 132.12 127.674 132.12 126.869C132.12 126.076 132.307 125.35 132.681 124.693C133.055 124.024 133.565 123.497 134.211 123.112C134.857 122.727 135.571 122.534 136.353 122.534C137.055 122.534 137.696 122.693 138.274 123.01C138.852 123.327 139.305 123.769 139.634 124.336C139.962 124.903 140.127 125.549 140.127 126.274ZM136.319 123.724C135.627 123.724 135.027 123.945 134.517 124.387C134.007 124.818 133.678 125.39 133.531 126.104H138.784C138.772 125.367 138.529 124.789 138.053 124.37C137.588 123.939 137.01 123.724 136.319 123.724ZM146.217 122.653C146.399 122.653 146.603 122.676 146.829 122.721V123.877H146.336C145.872 123.877 145.441 123.973 145.044 124.166C144.648 124.359 144.33 124.636 144.092 124.999C143.854 125.362 143.735 125.798 143.735 126.308V131H142.426V122.721H143.65V123.894C143.945 123.497 144.319 123.191 144.772 122.976C145.237 122.761 145.719 122.653 146.217 122.653ZM160.112 122.721L156.219 131.187H155.743L151.833 122.721H153.227L155.981 128.96L158.718 122.721H160.112ZM165.408 122.534C166.201 122.534 166.926 122.727 167.584 123.112C168.252 123.486 168.779 124.007 169.165 124.676C169.55 125.333 169.743 126.059 169.743 126.852C169.743 127.645 169.544 128.371 169.148 129.028C168.762 129.685 168.235 130.207 167.567 130.592C166.909 130.977 166.184 131.17 165.391 131.17C164.597 131.17 163.872 130.977 163.215 130.592C162.557 130.207 162.036 129.685 161.651 129.028C161.265 128.371 161.073 127.645 161.073 126.852C161.073 126.059 161.265 125.333 161.651 124.676C162.036 124.007 162.557 123.486 163.215 123.112C163.883 122.727 164.614 122.534 165.408 122.534ZM165.408 123.741C164.841 123.741 164.325 123.877 163.861 124.149C163.407 124.421 163.05 124.801 162.79 125.288C162.54 125.764 162.416 126.291 162.416 126.869C162.416 127.447 162.54 127.974 162.79 128.45C163.05 128.915 163.407 129.283 163.861 129.555C164.314 129.827 164.824 129.963 165.391 129.963C165.957 129.963 166.467 129.827 166.921 129.555C167.385 129.283 167.748 128.909 168.009 128.433C168.269 127.957 168.4 127.436 168.4 126.869C168.4 126.28 168.269 125.747 168.009 125.271C167.748 124.795 167.385 124.421 166.921 124.149C166.467 123.877 165.963 123.741 165.408 123.741ZM175.818 122.534C176.781 122.534 177.535 122.834 178.079 123.435C178.623 124.036 178.895 124.823 178.895 125.798V131H177.586V125.951C177.586 125.294 177.399 124.761 177.025 124.353C176.662 123.945 176.163 123.741 175.529 123.741C174.894 123.741 174.373 123.951 173.965 124.37C173.557 124.778 173.353 125.305 173.353 125.951V131H172.044V122.721H173.268V123.605C173.574 123.265 173.942 123.004 174.373 122.823C174.815 122.63 175.296 122.534 175.818 122.534ZM189.871 119.78C191.118 119.78 192.2 120.018 193.118 120.494C194.036 120.97 194.739 121.633 195.226 122.483C195.725 123.322 195.974 124.285 195.974 125.373C195.974 126.45 195.725 127.413 195.226 128.263C194.739 129.113 194.036 129.782 193.118 130.269C192.2 130.756 191.118 131 189.871 131H186.539V119.78H189.871ZM187.865 120.97V129.81H189.854C190.829 129.81 191.673 129.617 192.387 129.232C193.113 128.847 193.662 128.32 194.036 127.651C194.41 126.982 194.597 126.223 194.597 125.373C194.597 124.512 194.41 123.752 194.036 123.095C193.662 122.426 193.118 121.905 192.404 121.531C191.69 121.157 190.84 120.97 189.854 120.97H187.865ZM199.55 131H198.241V122.721H199.55V131ZM198.904 118.607C199.165 118.607 199.391 118.703 199.584 118.896C199.777 119.077 199.873 119.298 199.873 119.559C199.873 119.831 199.777 120.058 199.584 120.239C199.403 120.42 199.176 120.511 198.904 120.511C198.632 120.511 198.4 120.42 198.207 120.239C198.014 120.058 197.918 119.831 197.918 119.559C197.918 119.298 198.014 119.077 198.207 118.896C198.4 118.703 198.632 118.607 198.904 118.607ZM206.215 122.653C206.397 122.653 206.601 122.676 206.827 122.721V123.877H206.334C205.87 123.877 205.439 123.973 205.042 124.166C204.646 124.359 204.328 124.636 204.09 124.999C203.852 125.362 203.733 125.798 203.733 126.308V131H202.424V122.721H203.648V123.894C203.943 123.497 204.317 123.191 204.77 122.976C205.235 122.761 205.717 122.653 206.215 122.653Z" fill="black"/>
<path d="M85.964 211.996C86.5307 212.053 87.0633 212.223 87.562 212.506C88.0607 212.778 88.463 213.163 88.769 213.662C89.075 214.161 89.228 214.756 89.228 215.447C89.228 216.195 89.0467 216.852 88.684 217.419C88.3213 217.986 87.834 218.422 87.222 218.728C86.61 219.034 85.9527 219.187 85.25 219.187C84.3887 219.187 83.6293 218.972 82.972 218.541C82.326 218.099 81.816 217.538 81.442 216.858L82.377 216.195C82.7397 216.728 83.1477 217.158 83.601 217.487C84.0543 217.804 84.5983 217.963 85.233 217.963C86.0037 217.963 86.6327 217.736 87.12 217.283C87.6073 216.818 87.851 216.212 87.851 215.464C87.851 214.739 87.6017 214.172 87.103 213.764C86.6157 213.356 85.9187 213.152 85.012 213.152H83.907V212.761L86.848 209.004H82.207V207.78H88.939V208.171L85.964 211.996ZM95.3835 207.593C96.7435 207.593 97.7635 208.114 98.4435 209.157C99.1348 210.188 99.4805 211.565 99.4805 213.288C99.4805 215.011 99.1405 216.427 98.4605 217.538C97.7805 218.637 96.7548 219.187 95.3835 219.187C94.0121 219.187 92.9808 218.637 92.2895 217.538C91.6095 216.427 91.2695 215.011 91.2695 213.288C91.2695 211.577 91.6151 210.2 92.3065 209.157C92.9978 208.114 94.0235 207.593 95.3835 207.593ZM95.3835 208.817C94.4315 208.817 93.7345 209.214 93.2925 210.007C92.8618 210.8 92.6465 211.9 92.6465 213.305C92.6465 214.733 92.8675 215.866 93.3095 216.705C93.7515 217.544 94.4428 217.963 95.3835 217.963C96.3241 217.963 97.0098 217.544 97.4405 216.705C97.8825 215.866 98.1035 214.733 98.1035 213.305C98.1035 211.9 97.8881 210.8 97.4575 210.007C97.0268 209.214 96.3355 208.817 95.3835 208.817ZM108.244 217.81H113.565V219H106.918V207.78H108.244V217.81ZM116.725 219H115.416V210.721H116.725V219ZM116.079 206.607C116.339 206.607 116.566 206.703 116.759 206.896C116.951 207.077 117.048 207.298 117.048 207.559C117.048 207.831 116.951 208.058 116.759 208.239C116.577 208.42 116.351 208.511 116.079 208.511C115.807 208.511 115.574 208.42 115.382 208.239C115.189 208.058 115.093 207.831 115.093 207.559C115.093 207.298 115.189 207.077 115.382 206.896C115.574 206.703 115.807 206.607 116.079 206.607ZM123.016 217.997C123.334 217.997 123.702 217.963 124.121 217.895V219C123.6 219.125 123.141 219.187 122.744 219.187C121.883 219.187 121.203 218.966 120.704 218.524C120.206 218.082 119.956 217.408 119.956 216.501V211.894H118.562V210.721H119.956V208.46H121.265V210.721H123.849V211.894H121.265V216.416C121.265 217.005 121.413 217.419 121.707 217.657C122.013 217.884 122.45 217.997 123.016 217.997ZM133.32 214.274C133.32 214.625 133.286 214.954 133.218 215.26H126.673C126.752 216.076 127.075 216.733 127.642 217.232C128.209 217.731 128.9 217.98 129.716 217.98C130.657 217.98 131.501 217.606 132.249 216.858L133.014 217.742C132.583 218.195 132.085 218.552 131.518 218.813C130.963 219.062 130.356 219.187 129.699 219.187C128.883 219.187 128.141 219 127.472 218.626C126.803 218.241 126.276 217.719 125.891 217.062C125.506 216.405 125.313 215.674 125.313 214.869C125.313 214.076 125.5 213.35 125.874 212.693C126.248 212.024 126.758 211.497 127.404 211.112C128.05 210.727 128.764 210.534 129.546 210.534C130.249 210.534 130.889 210.693 131.467 211.01C132.045 211.327 132.498 211.769 132.827 212.336C133.156 212.903 133.32 213.549 133.32 214.274ZM129.512 211.724C128.821 211.724 128.22 211.945 127.71 212.387C127.2 212.818 126.871 213.39 126.724 214.104H131.977C131.966 213.367 131.722 212.789 131.246 212.37C130.781 211.939 130.203 211.724 129.512 211.724ZM139.411 210.653C139.592 210.653 139.796 210.676 140.023 210.721V211.877H139.53C139.065 211.877 138.634 211.973 138.238 212.166C137.841 212.359 137.524 212.636 137.286 212.999C137.048 213.362 136.929 213.798 136.929 214.308V219H135.62V210.721H136.844V211.894C137.138 211.497 137.512 211.191 137.966 210.976C138.43 210.761 138.912 210.653 139.411 210.653ZM153.305 210.721L149.412 219.187H148.936L145.026 210.721H146.42L149.174 216.96L151.911 210.721H153.305ZM158.601 210.534C159.394 210.534 160.12 210.727 160.777 211.112C161.446 211.486 161.973 212.007 162.358 212.676C162.743 213.333 162.936 214.059 162.936 214.852C162.936 215.645 162.738 216.371 162.341 217.028C161.956 217.685 161.429 218.207 160.76 218.592C160.103 218.977 159.377 219.17 158.584 219.17C157.791 219.17 157.065 218.977 156.408 218.592C155.751 218.207 155.229 217.685 154.844 217.028C154.459 216.371 154.266 215.645 154.266 214.852C154.266 214.059 154.459 213.333 154.844 212.676C155.229 212.007 155.751 211.486 156.408 211.112C157.077 210.727 157.808 210.534 158.601 210.534ZM158.601 211.741C158.034 211.741 157.519 211.877 157.054 212.149C156.601 212.421 156.244 212.801 155.983 213.288C155.734 213.764 155.609 214.291 155.609 214.869C155.609 215.447 155.734 215.974 155.983 216.45C156.244 216.915 156.601 217.283 157.054 217.555C157.507 217.827 158.017 217.963 158.584 217.963C159.151 217.963 159.661 217.827 160.114 217.555C160.579 217.283 160.941 216.909 161.202 216.433C161.463 215.957 161.593 215.436 161.593 214.869C161.593 214.28 161.463 213.747 161.202 213.271C160.941 212.795 160.579 212.421 160.114 212.149C159.661 211.877 159.156 211.741 158.601 211.741ZM169.011 210.534C169.974 210.534 170.728 210.834 171.272 211.435C171.816 212.036 172.088 212.823 172.088 213.798V219H170.779V213.951C170.779 213.294 170.592 212.761 170.218 212.353C169.855 211.945 169.357 211.741 168.722 211.741C168.087 211.741 167.566 211.951 167.158 212.37C166.75 212.778 166.546 213.305 166.546 213.951V219H165.237V210.721H166.461V211.605C166.767 211.265 167.135 211.004 167.566 210.823C168.008 210.63 168.49 210.534 169.011 210.534ZM183.677 207.78C184.402 207.78 185.031 207.922 185.564 208.205C186.108 208.477 186.527 208.862 186.822 209.361C187.116 209.848 187.264 210.404 187.264 211.027C187.264 211.662 187.116 212.228 186.822 212.727C186.527 213.226 186.108 213.617 185.564 213.9C185.031 214.172 184.402 214.308 183.677 214.308H181.059V219H179.733V207.78H183.677ZM181.059 208.97V213.118H183.643C184.357 213.118 184.906 212.931 185.292 212.557C185.688 212.172 185.887 211.667 185.887 211.044C185.887 210.432 185.688 209.933 185.292 209.548C184.906 209.163 184.357 208.97 183.643 208.97H181.059ZM196.572 214.274C196.572 214.625 196.538 214.954 196.47 215.26H189.925C190.004 216.076 190.327 216.733 190.894 217.232C191.461 217.731 192.152 217.98 192.968 217.98C193.909 217.98 194.753 217.606 195.501 216.858L196.266 217.742C195.835 218.195 195.337 218.552 194.77 218.813C194.215 219.062 193.608 219.187 192.951 219.187C192.135 219.187 191.393 219 190.724 218.626C190.055 218.241 189.528 217.719 189.143 217.062C188.758 216.405 188.565 215.674 188.565 214.869C188.565 214.076 188.752 213.35 189.126 212.693C189.5 212.024 190.01 211.497 190.656 211.112C191.302 210.727 192.016 210.534 192.798 210.534C193.501 210.534 194.141 210.693 194.719 211.01C195.297 211.327 195.75 211.769 196.079 212.336C196.408 212.903 196.572 213.549 196.572 214.274ZM192.764 211.724C192.073 211.724 191.472 211.945 190.962 212.387C190.452 212.818 190.123 213.39 189.976 214.104H195.229C195.218 213.367 194.974 212.789 194.498 212.37C194.033 211.939 193.455 211.724 192.764 211.724ZM202.289 217.997C202.606 217.997 202.974 217.963 203.394 217.895V219C202.872 219.125 202.413 219.187 202.017 219.187C201.155 219.187 200.475 218.966 199.977 218.524C199.478 218.082 199.229 217.408 199.229 216.501V211.894H197.835V210.721H199.229V208.46H200.538V210.721H203.122V211.894H200.538V216.416C200.538 217.005 200.685 217.419 200.98 217.657C201.286 217.884 201.722 217.997 202.289 217.997ZM212.592 214.274C212.592 214.625 212.558 214.954 212.49 215.26H205.945C206.025 216.076 206.348 216.733 206.914 217.232C207.481 217.731 208.172 217.98 208.988 217.98C209.929 217.98 210.773 217.606 211.521 216.858L212.286 217.742C211.856 218.195 211.357 218.552 210.79 218.813C210.235 219.062 209.629 219.187 208.971 219.187C208.155 219.187 207.413 219 206.744 218.626C206.076 218.241 205.549 217.719 205.163 217.062C204.778 216.405 204.585 215.674 204.585 214.869C204.585 214.076 204.772 213.35 205.146 212.693C205.52 212.024 206.03 211.497 206.676 211.112C207.322 210.727 208.036 210.534 208.818 210.534C209.521 210.534 210.161 210.693 210.739 211.01C211.317 211.327 211.771 211.769 212.099 212.336C212.428 212.903 212.592 213.549 212.592 214.274ZM208.784 211.724C208.093 211.724 207.492 211.945 206.982 212.387C206.472 212.818 206.144 213.39 205.996 214.104H211.249C211.238 213.367 210.994 212.789 210.518 212.37C210.054 211.939 209.476 211.724 208.784 211.724ZM218.683 210.653C218.865 210.653 219.069 210.676 219.295 210.721V211.877H218.802C218.338 211.877 217.907 211.973 217.51 212.166C217.114 212.359 216.796 212.636 216.558 212.999C216.32 213.362 216.201 213.798 216.201 214.308V219H214.892V210.721H216.116V211.894C216.411 211.497 216.785 211.191 217.238 210.976C217.703 210.761 218.185 210.653 218.683 210.653Z" fill="black"/>
<path d="M85.675 257.979C86.3663 257.979 87.001 258.109 87.579 258.37C88.1683 258.619 88.6387 259.005 88.99 259.526C89.3413 260.047 89.517 260.688 89.517 261.447C89.517 262.195 89.33 262.852 88.956 263.419C88.5933 263.986 88.106 264.422 87.494 264.728C86.8933 265.034 86.2417 265.187 85.539 265.187C84.6437 265.187 83.8673 264.972 83.21 264.541C82.564 264.11 82.0483 263.555 81.663 262.875L82.581 262.195C82.9323 262.728 83.3403 263.158 83.805 263.487C84.281 263.804 84.8533 263.963 85.522 263.963C86.2813 263.963 86.9047 263.736 87.392 263.283C87.8907 262.818 88.14 262.212 88.14 261.464C88.14 260.727 87.8907 260.155 87.392 259.747C86.9047 259.339 86.202 259.135 85.284 259.135H82.751V253.78H88.548V254.97H84.077V258.115C84.5983 258.024 85.131 257.979 85.675 257.979ZM95.6657 253.593C97.0257 253.593 98.0457 254.114 98.7257 255.157C99.417 256.188 99.7627 257.565 99.7627 259.288C99.7627 261.011 99.4227 262.427 98.7427 263.538C98.0627 264.637 97.037 265.187 95.6657 265.187C94.2944 265.187 93.263 264.637 92.5717 263.538C91.8917 262.427 91.5517 261.011 91.5517 259.288C91.5517 257.577 91.8974 256.2 92.5887 255.157C93.28 254.114 94.3057 253.593 95.6657 253.593ZM95.6657 254.817C94.7137 254.817 94.0167 255.214 93.5747 256.007C93.144 256.8 92.9287 257.9 92.9287 259.305C92.9287 260.733 93.1497 261.866 93.5917 262.705C94.0337 263.544 94.725 263.963 95.6657 263.963C96.6064 263.963 97.292 263.544 97.7227 262.705C98.1647 261.866 98.3857 260.733 98.3857 259.305C98.3857 257.9 98.1704 256.8 97.7397 256.007C97.309 255.214 96.6177 254.817 95.6657 254.817ZM108.526 263.81H113.847V265H107.2V253.78H108.526V263.81ZM117.007 265H115.698V256.721H117.007V265ZM116.361 252.607C116.622 252.607 116.848 252.703 117.041 252.896C117.234 253.077 117.33 253.298 117.33 253.559C117.33 253.831 117.234 254.058 117.041 254.239C116.86 254.42 116.633 254.511 116.361 254.511C116.089 254.511 115.857 254.42 115.664 254.239C115.471 254.058 115.375 253.831 115.375 253.559C115.375 253.298 115.471 253.077 115.664 252.896C115.857 252.703 116.089 252.607 116.361 252.607ZM123.299 263.997C123.616 263.997 123.984 263.963 124.404 263.895V265C123.882 265.125 123.423 265.187 123.027 265.187C122.165 265.187 121.485 264.966 120.987 264.524C120.488 264.082 120.239 263.408 120.239 262.501V257.894H118.845V256.721H120.239V254.46H121.548V256.721H124.132V257.894H121.548V262.416C121.548 263.005 121.695 263.419 121.99 263.657C122.296 263.884 122.732 263.997 123.299 263.997ZM133.602 260.274C133.602 260.625 133.568 260.954 133.5 261.26H126.955C127.034 262.076 127.357 262.733 127.924 263.232C128.491 263.731 129.182 263.98 129.998 263.98C130.939 263.98 131.783 263.606 132.531 262.858L133.296 263.742C132.865 264.195 132.367 264.552 131.8 264.813C131.245 265.062 130.638 265.187 129.981 265.187C129.165 265.187 128.423 265 127.754 264.626C127.085 264.241 126.558 263.719 126.173 263.062C125.788 262.405 125.595 261.674 125.595 260.869C125.595 260.076 125.782 259.35 126.156 258.693C126.53 258.024 127.04 257.497 127.686 257.112C128.332 256.727 129.046 256.534 129.828 256.534C130.531 256.534 131.171 256.693 131.749 257.01C132.327 257.327 132.78 257.769 133.109 258.336C133.438 258.903 133.602 259.549 133.602 260.274ZM129.794 257.724C129.103 257.724 128.502 257.945 127.992 258.387C127.482 258.818 127.153 259.39 127.006 260.104H132.259C132.248 259.367 132.004 258.789 131.528 258.37C131.063 257.939 130.485 257.724 129.794 257.724ZM139.693 256.653C139.874 256.653 140.078 256.676 140.305 256.721V257.877H139.812C139.347 257.877 138.917 257.973 138.52 258.166C138.123 258.359 137.806 258.636 137.568 258.999C137.33 259.362 137.211 259.798 137.211 260.308V265H135.902V256.721H137.126V257.894C137.421 257.497 137.795 257.191 138.248 256.976C138.713 256.761 139.194 256.653 139.693 256.653ZM153.587 256.721L149.694 265.187H149.218L145.308 256.721H146.702L149.456 262.96L152.193 256.721H153.587ZM158.883 256.534C159.677 256.534 160.402 256.727 161.059 257.112C161.728 257.486 162.255 258.007 162.64 258.676C163.026 259.333 163.218 260.059 163.218 260.852C163.218 261.645 163.02 262.371 162.623 263.028C162.238 263.685 161.711 264.207 161.042 264.592C160.385 264.977 159.66 265.17 158.866 265.17C158.073 265.17 157.348 264.977 156.69 264.592C156.033 264.207 155.512 263.685 155.126 263.028C154.741 262.371 154.548 261.645 154.548 260.852C154.548 260.059 154.741 259.333 155.126 258.676C155.512 258.007 156.033 257.486 156.69 257.112C157.359 256.727 158.09 256.534 158.883 256.534ZM158.883 257.741C158.317 257.741 157.801 257.877 157.336 258.149C156.883 258.421 156.526 258.801 156.265 259.288C156.016 259.764 155.891 260.291 155.891 260.869C155.891 261.447 156.016 261.974 156.265 262.45C156.526 262.915 156.883 263.283 157.336 263.555C157.79 263.827 158.3 263.963 158.866 263.963C159.433 263.963 159.943 263.827 160.396 263.555C160.861 263.283 161.224 262.909 161.484 262.433C161.745 261.957 161.875 261.436 161.875 260.869C161.875 260.28 161.745 259.747 161.484 259.271C161.224 258.795 160.861 258.421 160.396 258.149C159.943 257.877 159.439 257.741 158.883 257.741ZM169.293 256.534C170.257 256.534 171.01 256.834 171.554 257.435C172.098 258.036 172.37 258.823 172.37 259.798V265H171.061V259.951C171.061 259.294 170.874 258.761 170.5 258.353C170.138 257.945 169.639 257.741 169.004 257.741C168.37 257.741 167.848 257.951 167.44 258.37C167.032 258.778 166.828 259.305 166.828 259.951V265H165.519V256.721H166.743V257.605C167.049 257.265 167.418 257.004 167.848 256.823C168.29 256.63 168.772 256.534 169.293 256.534ZM183.262 253.593C184.01 253.593 184.69 253.769 185.302 254.12C185.925 254.471 186.418 254.93 186.781 255.497L185.812 256.228C185.517 255.775 185.143 255.429 184.69 255.191C184.236 254.942 183.755 254.817 183.245 254.817C182.689 254.817 182.219 254.959 181.834 255.242C181.448 255.525 181.256 255.928 181.256 256.449C181.256 256.766 181.329 257.038 181.477 257.265C181.624 257.48 181.811 257.662 182.038 257.809C182.276 257.945 182.616 258.121 183.058 258.336L184.299 258.931C185.183 259.35 185.84 259.798 186.271 260.274C186.701 260.75 186.917 261.345 186.917 262.059C186.917 262.671 186.758 263.215 186.441 263.691C186.135 264.167 185.704 264.535 185.149 264.796C184.605 265.057 183.987 265.187 183.296 265.187C182.423 265.187 181.624 264.972 180.899 264.541C180.185 264.11 179.607 263.521 179.165 262.773L180.151 262.042C180.989 263.323 182.032 263.963 183.279 263.963C183.947 263.963 184.491 263.793 184.911 263.453C185.33 263.113 185.54 262.66 185.54 262.093C185.54 261.764 185.466 261.487 185.319 261.26C185.171 261.033 184.967 260.841 184.707 260.682C184.457 260.523 184.112 260.336 183.67 260.121L182.412 259.526C181.618 259.141 180.995 258.721 180.542 258.268C180.1 257.815 179.879 257.231 179.879 256.517C179.879 255.939 180.032 255.429 180.338 254.987C180.644 254.545 181.052 254.205 181.562 253.967C182.083 253.718 182.65 253.593 183.262 253.593ZM192.726 263.997C193.044 263.997 193.412 263.963 193.831 263.895V265C193.31 265.125 192.851 265.187 192.454 265.187C191.593 265.187 190.913 264.966 190.414 264.524C189.916 264.082 189.666 263.408 189.666 262.501V257.894H188.272V256.721H189.666V254.46H190.975V256.721H193.559V257.894H190.975V262.416C190.975 263.005 191.123 263.419 191.417 263.657C191.723 263.884 192.16 263.997 192.726 263.997ZM198.759 256.534C199.734 256.534 200.516 256.823 201.105 257.401C201.694 257.979 201.989 258.812 201.989 259.9V265H200.765V263.929C200.459 264.337 200.068 264.649 199.592 264.864C199.116 265.079 198.578 265.187 197.977 265.187C197.127 265.187 196.43 264.977 195.886 264.558C195.353 264.139 195.087 263.572 195.087 262.858C195.087 262.155 195.359 261.594 195.903 261.175C196.447 260.756 197.167 260.546 198.062 260.546H200.68V259.832C200.68 259.152 200.499 258.636 200.136 258.285C199.785 257.922 199.297 257.741 198.674 257.741C198.175 257.741 197.733 257.854 197.348 258.081C196.963 258.296 196.6 258.625 196.26 259.067L195.393 258.353C195.767 257.741 196.249 257.288 196.838 256.993C197.427 256.687 198.068 256.534 198.759 256.534ZM198.147 264.099C198.6 264.099 199.02 264.003 199.405 263.81C199.79 263.606 200.096 263.328 200.323 262.977C200.561 262.626 200.68 262.24 200.68 261.821V261.617H198.215C197.637 261.617 197.195 261.719 196.889 261.923C196.583 262.116 196.43 262.405 196.43 262.79C196.43 263.209 196.594 263.532 196.923 263.759C197.252 263.986 197.66 264.099 198.147 264.099ZM212.636 252.25V265H211.395V263.691C211.078 264.156 210.636 264.524 210.069 264.796C209.514 265.057 208.913 265.187 208.267 265.187C207.497 265.187 206.8 265 206.176 264.626C205.553 264.241 205.06 263.719 204.697 263.062C204.346 262.405 204.17 261.674 204.17 260.869C204.17 260.064 204.346 259.333 204.697 258.676C205.06 258.007 205.553 257.486 206.176 257.112C206.8 256.727 207.497 256.534 208.267 256.534C208.891 256.534 209.474 256.659 210.018 256.908C210.562 257.157 210.999 257.503 211.327 257.945V252.25H212.636ZM208.454 263.98C208.953 263.98 209.423 263.867 209.865 263.64C210.307 263.413 210.664 263.068 210.936 262.603C211.208 262.138 211.344 261.56 211.344 260.869C211.344 260.178 211.208 259.6 210.936 259.135C210.664 258.659 210.307 258.308 209.865 258.081C209.423 257.854 208.953 257.741 208.454 257.741C207.899 257.741 207.395 257.877 206.941 258.149C206.499 258.41 206.148 258.778 205.887 259.254C205.638 259.73 205.513 260.263 205.513 260.852C205.513 261.441 205.638 261.974 205.887 262.45C206.148 262.926 206.499 263.3 206.941 263.572C207.395 263.844 207.899 263.98 208.454 263.98ZM218.924 263.997C219.241 263.997 219.609 263.963 220.029 263.895V265C219.507 265.125 219.048 265.187 218.652 265.187C217.79 265.187 217.11 264.966 216.612 264.524C216.113 264.082 215.864 263.408 215.864 262.501V257.894H214.47V256.721H215.864V254.46H217.173V256.721H219.757V257.894H217.173V262.416C217.173 263.005 217.32 263.419 217.615 263.657C217.921 263.884 218.357 263.997 218.924 263.997Z" fill="black"/>
<path d="M85.607 308.78V320H84.281V310.344L81.833 311.109L81.51 309.97L85.114 308.78H85.607ZM92.6774 308.593C94.0374 308.593 95.0574 309.114 95.7374 310.157C96.4287 311.188 96.7744 312.565 96.7744 314.288C96.7744 316.011 96.4344 317.427 95.7544 318.538C95.0744 319.637 94.0487 320.187 92.6774 320.187C91.3061 320.187 90.2747 319.637 89.5834 318.538C88.9034 317.427 88.5634 316.011 88.5634 314.288C88.5634 312.577 88.9091 311.2 89.6004 310.157C90.2917 309.114 91.3174 308.593 92.6774 308.593ZM92.6774 309.817C91.7254 309.817 91.0284 310.214 90.5864 311.007C90.1557 311.8 89.9404 312.9 89.9404 314.305C89.9404 315.733 90.1614 316.866 90.6034 317.705C91.0454 318.544 91.7367 318.963 92.6774 318.963C93.6181 318.963 94.3037 318.544 94.7344 317.705C95.1764 316.866 95.3974 315.733 95.3974 314.305C95.3974 312.9 95.1821 311.8 94.7514 311.007C94.3207 310.214 93.6294 309.817 92.6774 309.817ZM103.136 308.593C104.496 308.593 105.516 309.114 106.196 310.157C106.888 311.188 107.233 312.565 107.233 314.288C107.233 316.011 106.893 317.427 106.213 318.538C105.533 319.637 104.508 320.187 103.136 320.187C101.765 320.187 100.734 319.637 100.042 318.538C99.3624 317.427 99.0224 316.011 99.0224 314.288C99.0224 312.577 99.3681 311.2 100.059 310.157C100.751 309.114 101.776 308.593 103.136 308.593ZM103.136 309.817C102.184 309.817 101.487 310.214 101.045 311.007C100.615 311.8 100.399 312.9 100.399 314.305C100.399 315.733 100.62 316.866 101.062 317.705C101.504 318.544 102.196 318.963 103.136 318.963C104.077 318.963 104.763 318.544 105.193 317.705C105.635 316.866 105.856 315.733 105.856 314.305C105.856 312.9 105.641 311.8 105.21 311.007C104.78 310.214 104.088 309.817 103.136 309.817ZM115.997 318.81H121.318V320H114.671V308.78H115.997V318.81ZM124.478 320H123.169V311.721H124.478V320ZM123.832 307.607C124.092 307.607 124.319 307.703 124.512 307.896C124.704 308.077 124.801 308.298 124.801 308.559C124.801 308.831 124.704 309.058 124.512 309.239C124.33 309.42 124.104 309.511 123.832 309.511C123.56 309.511 123.327 309.42 123.135 309.239C122.942 309.058 122.846 308.831 122.846 308.559C122.846 308.298 122.942 308.077 123.135 307.896C123.327 307.703 123.56 307.607 123.832 307.607ZM130.769 318.997C131.087 318.997 131.455 318.963 131.874 318.895V320C131.353 320.125 130.894 320.187 130.497 320.187C129.636 320.187 128.956 319.966 128.457 319.524C127.959 319.082 127.709 318.408 127.709 317.501V312.894H126.315V311.721H127.709V309.46H129.018V311.721H131.602V312.894H129.018V317.416C129.018 318.005 129.166 318.419 129.46 318.657C129.766 318.884 130.203 318.997 130.769 318.997ZM141.073 315.274C141.073 315.625 141.039 315.954 140.971 316.26H134.426C134.505 317.076 134.828 317.733 135.395 318.232C135.961 318.731 136.653 318.98 137.469 318.98C138.409 318.98 139.254 318.606 140.002 317.858L140.767 318.742C140.336 319.195 139.837 319.552 139.271 319.813C138.715 320.062 138.109 320.187 137.452 320.187C136.636 320.187 135.893 320 135.225 319.626C134.556 319.241 134.029 318.719 133.644 318.062C133.258 317.405 133.066 316.674 133.066 315.869C133.066 315.076 133.253 314.35 133.627 313.693C134.001 313.024 134.511 312.497 135.157 312.112C135.803 311.727 136.517 311.534 137.299 311.534C138.001 311.534 138.642 311.693 139.22 312.01C139.798 312.327 140.251 312.769 140.58 313.336C140.908 313.903 141.073 314.549 141.073 315.274ZM137.265 312.724C136.573 312.724 135.973 312.945 135.463 313.387C134.953 313.818 134.624 314.39 134.477 315.104H139.73C139.718 314.367 139.475 313.789 138.999 313.37C138.534 312.939 137.956 312.724 137.265 312.724ZM147.164 311.653C147.345 311.653 147.549 311.676 147.776 311.721V312.877H147.283C146.818 312.877 146.387 312.973 145.991 313.166C145.594 313.359 145.277 313.636 145.039 313.999C144.801 314.362 144.682 314.798 144.682 315.308V320H143.373V311.721H144.597V312.894C144.891 312.497 145.265 312.191 145.719 311.976C146.183 311.761 146.665 311.653 147.164 311.653ZM161.058 311.721L157.165 320.187H156.689L152.779 311.721H154.173L156.927 317.96L159.664 311.721H161.058ZM166.354 311.534C167.147 311.534 167.873 311.727 168.53 312.112C169.199 312.486 169.726 313.007 170.111 313.676C170.496 314.333 170.689 315.059 170.689 315.852C170.689 316.645 170.491 317.371 170.094 318.028C169.709 318.685 169.182 319.207 168.513 319.592C167.856 319.977 167.13 320.17 166.337 320.17C165.544 320.17 164.818 319.977 164.161 319.592C163.504 319.207 162.982 318.685 162.597 318.028C162.212 317.371 162.019 316.645 162.019 315.852C162.019 315.059 162.212 314.333 162.597 313.676C162.982 313.007 163.504 312.486 164.161 312.112C164.83 311.727 165.561 311.534 166.354 311.534ZM166.354 312.741C165.787 312.741 165.272 312.877 164.807 313.149C164.354 313.421 163.997 313.801 163.736 314.288C163.487 314.764 163.362 315.291 163.362 315.869C163.362 316.447 163.487 316.974 163.736 317.45C163.997 317.915 164.354 318.283 164.807 318.555C165.26 318.827 165.77 318.963 166.337 318.963C166.904 318.963 167.414 318.827 167.867 318.555C168.332 318.283 168.694 317.909 168.955 317.433C169.216 316.957 169.346 316.436 169.346 315.869C169.346 315.28 169.216 314.747 168.955 314.271C168.694 313.795 168.332 313.421 167.867 313.149C167.414 312.877 166.909 312.741 166.354 312.741ZM176.764 311.534C177.727 311.534 178.481 311.834 179.025 312.435C179.569 313.036 179.841 313.823 179.841 314.798V320H178.532V314.951C178.532 314.294 178.345 313.761 177.971 313.353C177.608 312.945 177.11 312.741 176.475 312.741C175.84 312.741 175.319 312.951 174.911 313.37C174.503 313.778 174.299 314.305 174.299 314.951V320H172.99V311.721H174.214V312.605C174.52 312.265 174.888 312.004 175.319 311.823C175.761 311.63 176.243 311.534 176.764 311.534ZM196.427 308.78V320.187H195.951L188.811 311.585V320H187.485V308.593H187.961L195.101 317.212V308.78H196.427ZM202.312 311.534C203.286 311.534 204.068 311.823 204.658 312.401C205.247 312.979 205.542 313.812 205.542 314.9V320H204.318V318.929C204.012 319.337 203.621 319.649 203.145 319.864C202.669 320.079 202.13 320.187 201.53 320.187C200.68 320.187 199.983 319.977 199.439 319.558C198.906 319.139 198.64 318.572 198.64 317.858C198.64 317.155 198.912 316.594 199.456 316.175C200 315.756 200.719 315.546 201.615 315.546H204.233V314.832C204.233 314.152 204.051 313.636 203.689 313.285C203.337 312.922 202.85 312.741 202.227 312.741C201.728 312.741 201.286 312.854 200.901 313.081C200.515 313.296 200.153 313.625 199.813 314.067L198.946 313.353C199.32 312.741 199.801 312.288 200.391 311.993C200.98 311.687 201.62 311.534 202.312 311.534ZM201.7 319.099C202.153 319.099 202.572 319.003 202.958 318.81C203.343 318.606 203.649 318.328 203.876 317.977C204.114 317.626 204.233 317.24 204.233 316.821V316.617H201.768C201.19 316.617 200.748 316.719 200.442 316.923C200.136 317.116 199.983 317.405 199.983 317.79C199.983 318.209 200.147 318.532 200.476 318.759C200.804 318.986 201.212 319.099 201.7 319.099ZM211.735 318.997C212.052 318.997 212.421 318.963 212.84 318.895V320C212.319 320.125 211.86 320.187 211.463 320.187C210.602 320.187 209.922 319.966 209.423 319.524C208.924 319.082 208.675 318.408 208.675 317.501V312.894H207.281V311.721H208.675V309.46H209.984V311.721H212.568V312.894H209.984V317.416C209.984 318.005 210.131 318.419 210.426 318.657C210.732 318.884 211.168 318.997 211.735 318.997ZM221.542 316.702C221.542 317.393 221.389 318.005 221.083 318.538C220.788 319.059 220.38 319.467 219.859 319.762C219.337 320.045 218.759 320.187 218.125 320.187C217.479 320.187 216.895 320.045 216.374 319.762C215.852 319.467 215.439 319.059 215.133 318.538C214.838 318.005 214.691 317.393 214.691 316.702V311.721H215.983V316.787C215.983 317.456 216.187 317.988 216.595 318.385C217.003 318.782 217.513 318.98 218.125 318.98C218.725 318.98 219.224 318.782 219.621 318.385C220.029 317.977 220.233 317.444 220.233 316.787V311.721H221.542V316.702ZM228.096 311.653C228.278 311.653 228.482 311.676 228.708 311.721V312.877H228.215C227.751 312.877 227.32 312.973 226.923 313.166C226.527 313.359 226.209 313.636 225.971 313.999C225.733 314.362 225.614 314.798 225.614 315.308V320H224.305V311.721H225.529V312.894C225.824 312.497 226.198 312.191 226.651 311.976C227.116 311.761 227.598 311.653 228.096 311.653Z" fill="black"/>
<line x1="69" y1="75.5" x2="40" y2="75.5" stroke="black" stroke-opacity="0.4"/>
<line x1="69" y1="124.5" x2="40" y2="124.5" stroke="black" stroke-opacity="0.4"/>
<line x1="69" y1="212.5" x2="40" y2="212.5" stroke="black" stroke-opacity="0.4"/>
<line x1="69" y1="258.5" x2="40" y2="258.5" stroke="black" stroke-opacity="0.4"/>
<line x1="69" y1="313.5" x2="40" y2="313.5" stroke="black" stroke-opacity="0.4"/>
<defs>
<clipPath id="clip0_473_2547">
<rect width="24" height="24" fill="white"/>
</clipPath>
</defs>
</svg>
