<svg width="24" height="24" viewBox="0 0 24 24" fill="none" xmlns="http://www.w3.org/2000/svg">
<g clip-path="url(#clip0_473_2557)">
<path d="M18.2652 12.3348C18.4782 14.0774 17.7593 16.0361 16.4892 17.5583C15.211 19.0903 13.5452 19.9846 12.045 19.8995C10.5207 19.813 8.71618 18.6676 7.54522 16.9085C6.39442 15.1797 5.99366 13.068 6.94458 11.1436C8.03116 8.94459 9.50508 7.19603 10.7178 5.99234C11.3222 5.39243 11.8564 4.93315 12.2362 4.62617C12.2416 4.62176 12.247 4.61739 12.2524 4.61304C12.369 4.7052 12.5 4.81038 12.643 4.92745C13.2418 5.4178 14.0429 6.11182 14.8564 6.92859C15.6726 7.74804 16.4837 8.67355 17.1154 9.62558C17.7537 10.5876 18.1645 11.511 18.2652 12.3348Z" stroke="black" stroke-width="2"/>
</g>
<defs>
<clipPath id="clip0_473_2557">
<rect width="24" height="24" fill="white"/>
</clipPath>
</defs>
</svg>
