<svg width="32" height="30" viewBox="0 0 32 30" fill="none" xmlns="http://www.w3.org/2000/svg">
<path name="krone" d="M31.9206 9.18182C32.721 19.9684 27.503 30.5323 14.6778 29.9792C7.3635 29.6637 0 20.3176 0 14.6024C0 8.88718 7.35222 0 14.6778 0C22.0034 0 31.9206 3.46658 31.9206 9.18182Z" fill="#007C23" fill-opacity="0.9"/>
<path name="aeste" fill-rule="evenodd" clip-rule="evenodd" d="M13.1823 7.05175C13.706 6.87628 14.2728 7.15856 14.4482 7.68223L16.7647 14.5959L23.493 10.638C23.969 10.358 24.582 10.5169 24.862 10.9929C25.142 11.4689 24.9831 12.0818 24.5071 12.3619L18.8949 15.6632L22.7197 16.5244C23.2585 16.6457 23.5969 17.1809 23.4756 17.7197C23.3543 18.2585 22.8192 18.5969 22.2804 18.4756L17.4307 17.3836L17.9873 20.841C18.0751 21.3862 17.7043 21.8994 17.159 21.9872C16.6137 22.075 16.1005 21.7042 16.0128 21.1589L15.3466 17.021L8.42458 16.4971C7.87387 16.4554 7.46122 15.9752 7.5029 15.4245C7.54458 14.8738 8.0248 14.4611 8.57551 14.5028L14.7816 14.9725L12.5519 8.31764C12.3764 7.79397 12.6587 7.22721 13.1823 7.05175Z" fill="#007C23" fill-opacity="1.0"/>
</svg>
